<svg width="183" height="56" viewBox="0 0 183 56" fill="none" xmlns="http://www.w3.org/2000/svg">
<path d="M37.352 27.12C36.968 29.776 35.896 32.288 34.136 34.656C32.376 36.992 30.04 38.928 27.128 40.464C24.248 41.968 21.24 42.72 18.104 42.72C17.272 42.72 16.344 42.64 15.32 42.48C10.776 41.776 7.144 39.952 4.424 37.008C1.736 34.064 0.392 30.48 0.392 26.256C0.392 22.864 1.24 19.696 2.936 16.752C4.664 13.808 7.144 11.392 10.376 9.504C13.608 7.584 16.936 6.624 20.36 6.624C21.512 6.624 22.776 6.752 24.152 7.008C28.504 7.84 31.832 9.664 34.136 12.48C36.472 15.264 37.64 18.848 37.64 23.232C37.64 24.48 37.544 25.776 37.352 27.12ZM42.392 49.488L39.08 51.552C34.472 54.464 31.032 55.92 28.76 55.92C28.024 55.92 27.32 55.84 26.648 55.68C26.008 55.552 25.16 55.296 24.104 54.912L12.872 50.832C11.592 50.384 10.6 50.16 9.896 50.16C8.936 50.16 7.72 50.576 6.248 51.408L5.336 51.936L3.224 48.768L7.496 45.936C10.152 44.208 12.472 43.344 14.456 43.344C15.928 43.344 17.912 43.76 20.408 44.592L29 47.472C31.656 48.368 33.592 48.816 34.808 48.816C36.024 48.816 37.576 48.272 39.464 47.184L40.472 46.512L42.392 49.488ZM26.84 24.576C26.52 20.896 25.72 18.304 24.44 16.8C23.192 15.264 21.288 14.496 18.728 14.496C18.44 14.496 18.168 14.496 17.912 14.496C17.528 14.56 17.24 14.592 17.048 14.592C14.712 14.816 13.24 15.68 12.632 17.184C12.152 18.368 11.912 21.072 11.912 25.296C11.912 25.424 11.912 25.52 11.912 25.584C11.88 25.84 11.864 26.08 11.864 26.304C11.864 28.352 12.232 30.032 12.968 31.344C14.184 33.52 16.28 34.608 19.256 34.608C20.024 34.608 20.776 34.56 21.512 34.464C22.28 34.368 23.112 34.192 24.008 33.936C24.936 33.68 25.64 32.768 26.12 31.2C26.632 29.6 26.888 27.856 26.888 25.968C26.888 25.584 26.888 25.28 26.888 25.056C26.856 24.832 26.84 24.672 26.84 24.576ZM74.1928 36.336L72.2728 42H63.7768L55.0888 28.992C54.8008 28.576 54.5768 28.288 54.4168 28.128C54.2568 28 54.0808 27.904 53.8888 27.84H53.6008H53.4088L53.2648 27.888V30C53.2648 32.272 53.5208 33.776 54.0328 34.512C54.5448 35.216 55.6008 35.728 57.2008 36.048L57.6328 36.096L55.3768 42H39.6327L41.9368 36.048L42.0808 36.096L42.7048 35.952C43.0568 35.792 43.2808 35.376 43.3768 34.704C43.5048 34 43.5688 32.752 43.5688 30.96C43.5688 29.808 43.5528 27.712 43.5208 24.672C43.4888 21.6 43.4728 19.504 43.4728 18.384C43.4088 17.488 43.3448 16.912 43.2808 16.656C43.2488 16.368 43.1848 16.112 43.0888 15.888C42.8648 15.12 42.5608 14.576 42.1768 14.256C41.8248 13.936 41.2008 13.712 40.3048 13.584L39.6327 13.536L41.8888 7.728H45.6328C48.0328 7.728 50.0808 7.696 51.7768 7.632C53.4728 7.536 55.7928 7.344 58.7368 7.056C58.9928 7.024 59.2488 7.008 59.5048 7.008C59.7928 7.008 60.0168 7.008 60.1768 7.008C61.5528 7.008 62.7688 7.216 63.8248 7.632C64.8808 8.016 65.8248 8.608 66.6568 9.408C67.7448 10.496 68.4488 11.712 68.7688 13.056C68.9608 13.92 69.0568 14.736 69.0568 15.504C69.0568 18.416 67.6328 20.768 64.7848 22.56C64.2408 22.88 63.6648 23.136 63.0568 23.328C62.4488 23.488 61.9528 23.616 61.5688 23.712C61.2168 23.776 60.9608 23.824 60.8008 23.856L60.6568 24.048L60.8488 24.192L62.0968 24.48C62.8008 24.64 63.3768 24.944 63.8248 25.392L64.8808 26.592L65.5048 27.312L69.9688 33.264L70.2088 33.552L70.8328 34.368C71.7928 35.552 72.9128 36.208 74.1928 36.336ZM58.4968 15.984C58.2408 14.48 57.5528 13.616 56.4328 13.392H55.5688C54.0968 13.648 53.3608 14.816 53.3608 16.896V20.736L55.2808 20.544L55.8088 20.448L56.2408 20.352C57.8088 19.936 58.5928 18.816 58.5928 16.992C58.5928 16.832 58.5608 16.496 58.4968 15.984ZM102.392 36L100.088 42H90.2956C90.0716 41.488 89.8956 41.008 89.7676 40.56C89.6716 40.08 89.6236 39.616 89.6236 39.168V37.92C89.2396 38.816 88.7116 39.584 88.0396 40.224C86.4716 41.696 84.6636 42.432 82.6156 42.432C80.1516 42.432 78.2956 41.952 77.0476 40.992C75.7996 40.032 74.9676 38.48 74.5516 36.336C74.4556 35.888 74.4076 35.424 74.4076 34.944C74.4076 33.024 75.0796 31.296 76.4236 29.76C77.5116 28.512 79.0796 27.6 81.1276 27.024L89.0956 24.816C89.3196 24.016 88.9836 23.296 88.0876 22.656C87.7676 22.432 87.3676 22.256 86.8876 22.128C86.4076 22 85.7996 21.936 85.0636 21.936C84.1676 21.936 83.2076 22.016 82.1836 22.176C81.1916 22.336 79.8796 22.64 78.2476 23.088L75.9916 23.808L78.7276 16.704C79.8156 16.32 80.8236 16.016 81.7516 15.792C82.7116 15.536 83.6236 15.408 84.4876 15.408C85.7676 15.28 87.0476 15.216 88.3276 15.216C90.5036 15.216 92.2156 15.456 93.4636 15.936C94.7116 16.384 95.7996 17.12 96.7276 18.144C97.5596 19.04 98.1036 20.144 98.3596 21.456C98.6476 22.736 98.7916 24.688 98.7916 27.312L98.6956 28.848V29.088C98.6316 29.824 98.5676 30.56 98.5036 31.296C98.4396 32 98.4076 32.544 98.4076 32.928C98.4076 34.176 98.6316 35.008 99.0796 35.424C99.5596 35.808 100.456 36 101.768 36H102.392ZM89.2396 30.24L89.1436 29.52L86.5996 30.24L85.9756 30.528C85.2076 30.976 84.6476 31.488 84.2956 32.064C83.9756 32.64 83.8636 33.216 83.9596 33.792C84.2156 35.2 85.0316 35.824 86.4076 35.664L86.8396 35.616L87.1756 35.568C87.9436 35.376 88.4716 34.896 88.7596 34.128C89.0796 33.328 89.2396 32.032 89.2396 30.24ZM135.582 36.192L133.374 42H122.238V41.616L122.19 41.232V40.608V39.984C121.358 40.752 120.398 41.36 119.31 41.808C118.254 42.224 116.926 42.432 115.326 42.432C115.134 42.464 114.958 42.48 114.798 42.48C114.542 42.48 114.35 42.48 114.222 42.48C112.91 42.48 111.646 42.256 110.43 41.808C109.246 41.36 108.158 40.72 107.166 39.888C105.918 38.768 104.974 37.44 104.334 35.904C103.726 34.336 103.422 32.416 103.422 30.144C103.422 29.056 103.502 27.824 103.662 26.448C103.822 25.04 104.334 23.6 105.198 22.128C106.446 19.92 107.902 18.256 109.566 17.136C111.262 15.984 113.102 15.408 115.086 15.408C115.566 15.408 115.934 15.424 116.19 15.456C118.974 15.744 120.958 16.816 122.142 18.672V16.032C122.142 14.592 122.062 13.728 121.902 13.44C121.774 13.12 121.31 12.768 120.51 12.384C120.094 12.16 119.598 12.016 119.022 11.952L118.158 11.856L119.982 7.152C122.126 6.704 124.19 6.16 126.174 5.52C128.158 4.848 130.142 4.032 132.126 3.072C132.126 4.576 132.014 7.68 131.79 12.384C131.598 17.088 131.502 20.72 131.502 23.28L131.598 32.304C131.598 33.968 131.774 35.024 132.126 35.472C132.478 35.92 133.278 36.144 134.526 36.144L135.582 36.192ZM121.71 34.848V27.888V26.016C121.71 25.28 121.582 24.56 121.326 23.856C120.814 22.48 119.918 21.792 118.638 21.792C117.902 21.792 117.214 22.048 116.574 22.56C115.966 23.072 115.454 23.712 115.038 24.48C114.654 25.248 114.462 26.096 114.462 27.024C114.43 27.376 114.398 27.76 114.366 28.176C114.366 28.592 114.366 28.896 114.366 29.088C114.366 31.328 114.75 33.008 115.518 34.128C116.318 35.216 117.422 35.76 118.83 35.76C119.214 35.76 119.502 35.744 119.694 35.712C120.462 35.552 121.134 35.264 121.71 34.848ZM149.474 5.328C149.474 7.44 149.058 8.88 148.226 9.648C147.394 10.416 145.554 11.072 142.706 11.616L138.578 12.432L138.722 11.04L138.818 10.08L138.914 8.784L139.01 6.72C139.01 5.376 139.25 4.336 139.73 3.6C140.242 2.832 141.138 2.128 142.418 1.488C143.698 0.815997 144.882 0.479997 145.97 0.479997C146.962 0.479997 147.762 0.735997 148.37 1.248C148.978 1.76 149.33 2.432 149.426 3.264C149.426 3.616 149.426 3.968 149.426 4.32C149.426 4.64 149.442 4.976 149.474 5.328ZM152.594 36.192L150.338 42H134.93L137.234 36.048L137.714 36C138.29 35.872 138.69 35.664 138.914 35.376L139.058 34.944L139.202 34.368C139.298 33.952 139.362 33.392 139.394 32.688C139.458 31.952 139.49 30.848 139.49 29.376V26.928C139.49 24.656 139.378 23.232 139.154 22.656C138.93 22.048 138.322 21.536 137.33 21.12C136.754 20.864 136.162 20.736 135.554 20.736C135.266 20.768 135.058 20.784 134.93 20.784L136.802 15.936L140.066 15.408L143.282 14.928L146.21 14.448L149.138 13.92L148.658 19.92L148.418 27.216C148.418 31.088 148.562 33.472 148.85 34.368C149.138 35.232 150.002 35.776 151.442 36L152.594 36.192ZM182.666 26.832C182.666 31.28 181.178 35.04 178.202 38.112C175.226 41.184 171.45 42.72 166.874 42.72C166.17 42.72 165.434 42.672 164.666 42.576C160.442 42.064 157.546 40.8 155.978 38.784C154.41 36.736 153.626 33.472 153.626 28.992C153.626 25.664 154.586 22.704 156.506 20.112C158.426 17.488 160.874 15.904 163.85 15.36C165.866 15.008 167.674 14.832 169.274 14.832C173.466 14.832 176.746 15.888 179.114 18C181.482 20.112 182.666 23.056 182.666 26.832ZM172.394 27.312C172.394 24.592 171.002 23.232 168.218 23.232C167.738 23.232 167.098 23.28 166.298 23.376C165.498 23.44 164.842 23.904 164.33 24.768C163.818 25.632 163.562 27.264 163.562 29.664C163.562 33.024 164.906 34.704 167.594 34.704C168.074 34.704 168.634 34.656 169.274 34.56C170.618 34.304 171.466 33.744 171.818 32.88C172.202 32.016 172.394 30.16 172.394 27.312Z" fill="#343A40"/>
</svg>
